<?xml version="1.0" standalone="no"?><!DOCTYPE svg PUBLIC "-//W3C//DTD SVG 1.1//EN" "http://www.w3.org/Graphics/SVG/1.1/DTD/svg11.dtd"><svg t="1631362359654" class="icon" viewBox="0 0 1024 1024" version="1.1" xmlns="http://www.w3.org/2000/svg" p-id="1272" xmlns:xlink="http://www.w3.org/1999/xlink" width="200" height="200"><defs><style type="text/css"></style></defs><path d="M822.784 645.12a10.24 10.24 0 0 1 10.24 10.24l-0.00512 107.52H940.544a10.24 10.24 0 0 1 10.2144 9.472l0.0256 0.768v51.2a10.24 10.24 0 0 1-10.24 10.24h-107.52512l0.00512 107.52a10.24 10.24 0 0 1-9.472 10.2144l-0.768 0.0256h-51.2a10.24 10.24 0 0 1-10.24-10.24l-0.00512-107.52H653.824a10.24 10.24 0 0 1-10.2144-9.472l-0.0256-0.768v-51.2a10.24 10.24 0 0 1 10.24-10.24h107.51488l0.00512-107.52a10.24 10.24 0 0 1 9.472-10.2144l0.768-0.0256zM814.08 71.68a30.72 30.72 0 0 1 30.72 30.72v416.256a5.12 5.12 0 0 1-5.12 5.12h-73.728a5.12 5.12 0 0 1-5.12-5.12V143.36H160.256v686.08h335.36a5.12 5.12 0 0 1 5.12 5.12v61.44a5.12 5.12 0 0 1-5.12 5.12H107.52a30.72 30.72 0 0 1-30.72-30.72V102.4a30.72 30.72 0 0 1 30.72-30.72z m-229.888 565.248a10.24 10.24 0 0 1 10.24 10.24v51.2a10.24 10.24 0 0 1-10.24 10.24H397.824a10.24 10.24 0 0 1-10.24-10.24v-51.2a10.24 10.24 0 0 1 10.24-10.24z m-281.6 0a10.24 10.24 0 0 1 10.24 10.24v51.2a10.24 10.24 0 0 1-10.24 10.24h-51.2a10.24 10.24 0 0 1-10.24-10.24v-51.2a10.24 10.24 0 0 1 10.24-10.24h51.2zM669.696 455.68a10.24 10.24 0 0 1 10.24 10.24v51.2a10.24 10.24 0 0 1-10.24 10.24H397.824a10.24 10.24 0 0 1-10.24-10.24V465.92a10.24 10.24 0 0 1 10.24-10.24z m-367.104 0a10.24 10.24 0 0 1 10.24 10.24v51.2a10.24 10.24 0 0 1-10.24 10.24h-51.2a10.24 10.24 0 0 1-10.24-10.24V465.92a10.24 10.24 0 0 1 10.24-10.24h51.2z m367.104-181.248a10.24 10.24 0 0 1 10.24 10.24v51.2a10.24 10.24 0 0 1-10.24 10.24H397.824a10.24 10.24 0 0 1-10.24-10.24v-51.2a10.24 10.24 0 0 1 10.24-10.24z m-367.104 0a10.24 10.24 0 0 1 10.24 10.24v51.2a10.24 10.24 0 0 1-10.24 10.24h-51.2a10.24 10.24 0 0 1-10.24-10.24v-51.2a10.24 10.24 0 0 1 10.24-10.24h51.2z" fill="#cccccc" p-id="1273"></path></svg>