<?xml version="1.0" standalone="no"?><!DOCTYPE svg PUBLIC "-//W3C//DTD SVG 1.1//EN" "http://www.w3.org/Graphics/SVG/1.1/DTD/svg11.dtd"><svg t="1631380620550" class="icon" viewBox="0 0 1024 1024" version="1.1" xmlns="http://www.w3.org/2000/svg" p-id="2297" xmlns:xlink="http://www.w3.org/1999/xlink" width="200" height="200"><defs><style type="text/css"></style></defs><path d="M854.592 288.64L639.424 73.472A32.192 32.192 0 0 0 616.704 64H192a32 32 0 0 0-32 32v832a32 32 0 0 0 32 32h640a32 32 0 0 0 32-32V311.296a32 32 0 0 0-9.408-22.592z m-64.384 37.376h-188.16v-188.16l188.16 188.16z m1.792 561.984h-560V136h302.016V352c0 23.168 18.752 41.984 41.984 41.984h216v494.016zM401.984 548.992a9.6 9.6 0 0 0 9.792 9.536h32.448a9.6 9.6 0 0 0 9.792-9.408c0-28.16 25.792-51.648 57.984-51.648s57.984 23.424 57.984 51.52c0 25.28-20.992 47.232-49.28 50.88a41.472 41.472 0 0 0-34.688 40.128v32c0 5.504 4.48 9.984 9.984 9.984h32c5.504 0 9.984-4.48 9.984-9.984v-12.16a14.08 14.08 0 0 1 9.728-13.312c44.608-14.4 75.008-54.016 74.24-98.944-0.768-55.488-49.152-100.8-108.48-101.568-61.376-0.704-111.488 45.568-111.488 103.04zM480 744a32 32 0 1 0 64 0 32 32 0 0 0-64 0z" fill="#cccccc" fill-opacity=".65" p-id="2298"></path></svg>