<?xml version="1.0" standalone="no"?><!DOCTYPE svg PUBLIC "-//W3C//DTD SVG 1.1//EN" "http://www.w3.org/Graphics/SVG/1.1/DTD/svg11.dtd"><svg t="1631342959190" class="icon" viewBox="0 0 1024 1024" version="1.1" xmlns="http://www.w3.org/2000/svg" p-id="3854" xmlns:xlink="http://www.w3.org/1999/xlink" width="200" height="200"><defs><style type="text/css"></style></defs><path d="M875.093333 301.781333L597.12 21.333333a77.44 77.44 0 0 0-14.805333-11.52 60.928 60.928 0 0 0-4.394667-2.261333c-0.938667-0.512-1.92-0.896-2.816-1.28A72.362667 72.362667 0 0 0 546.005333 0h-346.026666C160.213333 0 128 32.213333 128 72.021333v880C128 991.744 160.213333 1024 200.021333 1024h623.957334c39.808 0 72.021333-32.213333 72.021333-72.021333V352.512c0-19.029333-7.509333-37.205333-20.906667-50.730667z m-91.306666 10.24h-199.765334V110.421333l199.765334 201.557334z m40.234666 640H200.021333V72.021333H512v240C512 351.786667 544.213333 384 584.021333 384h239.957334v568.021333z" p-id="3855" fill="#cccccc"></path></svg>