<?xml version="1.0" standalone="no"?><!DOCTYPE svg PUBLIC "-//W3C//DTD SVG 1.1//EN" "http://www.w3.org/Graphics/SVG/1.1/DTD/svg11.dtd"><svg t="1631345126643" class="icon" viewBox="0 0 1024 1024" version="1.1" xmlns="http://www.w3.org/2000/svg" p-id="3172" xmlns:xlink="http://www.w3.org/1999/xlink" width="200" height="200"><defs><style type="text/css"></style></defs><path d="M832 853.333333H192a106.666667 106.666667 0 0 1-106.666667-106.666666V277.333333a106.666667 106.666667 0 0 1 106.666667-106.666666h120.533333a106.666667 106.666667 0 0 1 64 21.333333l122.88 93.226667a64 64 0 0 0 38.613334 13.013333H832a106.666667 106.666667 0 0 1 106.666667 106.666667V746.666667a106.666667 106.666667 0 0 1-106.666667 106.666666zM192 213.333333a64 64 0 0 0-64 64v469.333334a64 64 0 0 0 64 64h640a64 64 0 0 0 64-64V405.333333a64 64 0 0 0-64-64H538.666667a106.666667 106.666667 0 0 1-64-21.333333l-122.88-93.226667a64 64 0 0 0-39.253334-13.44z" p-id="3173" fill="#cccccc"></path></svg>