<?xml version="1.0" standalone="no"?><!DOCTYPE svg PUBLIC "-//W3C//DTD SVG 1.1//EN" "http://www.w3.org/Graphics/SVG/1.1/DTD/svg11.dtd"><svg t="1631379941503" class="icon" viewBox="0 0 1024 1024" version="1.1" xmlns="http://www.w3.org/2000/svg" p-id="3536" xmlns:xlink="http://www.w3.org/1999/xlink" width="200" height="200"><defs><style type="text/css"></style></defs><path d="M757.333333 938.666667h-490.666666A117.546667 117.546667 0 0 1 149.333333 821.333333v-618.666666A117.546667 117.546667 0 0 1 266.666667 85.333333h490.666666A117.546667 117.546667 0 0 1 874.666667 202.666667v618.666666a117.546667 117.546667 0 0 1-117.333334 117.333334z m-490.666666-789.333334A53.333333 53.333333 0 0 0 213.333333 202.666667v618.666666a53.333333 53.333333 0 0 0 53.333334 53.333334h490.666666a53.333333 53.333333 0 0 0 53.333334-53.333334v-618.666666A53.333333 53.333333 0 0 0 757.333333 149.333333z" fill="#cccccc" p-id="3537"></path><path d="M640 346.666667h-192a32 32 0 0 1 0-64h192a32 32 0 0 1 0 64z" fill="#cccccc" p-id="3538"></path><path d="M362.666667 314.666667m-32 0a32 32 0 1 0 64 0 32 32 0 1 0-64 0Z" fill="#cccccc" p-id="3539"></path><path d="M640 528h-192a32 32 0 0 1 0-64h192a32 32 0 0 1 0 64z" fill="#cccccc" p-id="3540"></path><path d="M362.666667 496m-32 0a32 32 0 1 0 64 0 32 32 0 1 0-64 0Z" fill="#cccccc" p-id="3541"></path><path d="M640 709.333333h-192a32 32 0 0 1 0-64h192a32 32 0 0 1 0 64z" fill="#cccccc" p-id="3542"></path><path d="M362.666667 677.333333m-32 0a32 32 0 1 0 64 0 32 32 0 1 0-64 0Z" fill="#cccccc" p-id="3543"></path></svg>